<svg width="203" height="203" viewBox="0 0 203 203" fill="none" xmlns="http://www.w3.org/2000/svg">
<mask id="path-1-inside-1_76_160" fill="white">
<path d="M169.25 101.25C157.493 101.25 145.736 97.2742 135.417 90C114.778 104.464 88.3883 104.464 67.75 90C57.4308 97.2742 45.6737 101.25 33.9167 101.25H17V118.166H33.9167C45.5046 118.166 57.0925 115.206 67.75 109.708C88.8958 120.704 114.271 120.704 135.417 109.708C146.074 115.206 157.577 118.166 169.25 118.166H186.167V101.25"/>
</mask>
<path d="M169.25 101.25C157.493 101.25 145.736 97.2742 135.417 90C114.778 104.464 88.3883 104.464 67.75 90C57.4308 97.2742 45.6737 101.25 33.9167 101.25H17V118.166H33.9167C45.5046 118.166 57.0925 115.206 67.75 109.708C88.8958 120.704 114.271 120.704 135.417 109.708C146.074 115.206 157.577 118.166 169.25 118.166H186.167V101.25" fill="white"/>
<path d="M135.417 90L135.993 89.1827L135.418 88.7777L134.843 89.1811L135.417 90ZM67.75 90L68.3239 89.1811L67.7483 88.7777L67.1738 89.1827L67.75 90ZM17 101.25V100.25H16V101.25H17ZM17 118.166H16V119.166H17V118.166ZM67.75 109.708L68.2114 108.821L67.7518 108.582L67.2915 108.819L67.75 109.708ZM135.417 109.708L135.875 108.819L135.415 108.582L134.955 108.821L135.417 109.708ZM186.167 118.166V119.166H187.167V118.166H186.167ZM169.25 100.25C157.72 100.25 146.161 96.3506 135.993 89.1827L134.841 90.8173C145.31 98.1977 157.266 102.25 169.25 102.25V100.25ZM134.843 89.1811C114.549 103.403 88.6177 103.403 68.3239 89.1811L67.1761 90.8189C88.1589 105.524 115.008 105.524 135.991 90.8189L134.843 89.1811ZM67.1738 89.1827C57.0054 96.3506 45.4466 100.25 33.9167 100.25V102.25C45.9009 102.25 57.8563 98.1977 68.3262 90.8173L67.1738 89.1827ZM33.9167 100.25H17V102.25H33.9167V100.25ZM16 101.25V118.166H18V101.25H16ZM17 119.166H33.9167V117.166H17V119.166ZM33.9167 119.166C45.6751 119.166 57.4193 116.162 68.2085 110.597L67.2915 108.819C56.7657 114.249 45.3341 117.166 33.9167 117.166V119.166ZM67.2886 110.595C88.7237 121.741 114.443 121.741 135.878 110.595L134.955 108.821C114.099 119.666 89.068 119.666 68.2114 108.821L67.2886 110.595ZM134.958 110.597C145.747 116.162 157.406 119.166 169.25 119.166V117.166C157.749 117.166 146.402 114.249 135.875 108.819L134.958 110.597ZM169.25 119.166H186.167V117.166H169.25V119.166ZM187.167 118.166V101.25H185.167V118.166H187.167Z" fill="#08678C" mask="url(#path-1-inside-1_76_160)"/>
</svg>
