<svg width="213" height="213" viewBox="0 0 213 213" fill="none" xmlns="http://www.w3.org/2000/svg">
<path d="M173.799 39.1831H193.031V58.4152M173.799 39.1831V58.4152M173.799 39.1831H154.563M193.031 58.4152H173.799M193.031 58.4152V77.6474M173.799 58.4152V77.6474M173.799 58.4152H154.563M193.031 77.6474H173.799M193.031 77.6474V96.8795M173.799 77.6474V96.8795M173.799 77.6474H154.563V58.4152M193.031 96.8795H173.799M193.031 96.8795V116.116M173.799 96.8795V116.116M193.031 116.116H173.799M193.031 116.116V135.348H173.799M173.799 116.116V135.348M173.799 116.116H154.563V135.348H173.799M173.799 135.353H193.031V154.585M173.799 135.353V154.585M173.799 135.353H154.563M193.031 154.585H173.799M193.031 154.585V173.817H173.799M173.799 154.585V173.817M173.799 154.585H154.563M173.799 173.817H154.563M39.2009 39.1831H19.9688V58.4152M39.2009 39.1831V58.4152M39.2009 39.1831H58.433M39.2009 58.4152H19.9688M39.2009 58.4152V77.6474M39.2009 58.4152H58.433M19.9688 58.4152V77.6474M39.2009 77.6474H19.9688M39.2009 77.6474V96.8795M39.2009 77.6474H58.433M19.9688 77.6474V96.8795M39.2009 96.8795H19.9688M39.2009 96.8795V116.116M39.2009 96.8795H58.433M19.9688 96.8795V116.116M39.2009 116.116H19.9688M39.2009 116.116V135.348M39.2009 116.116H58.433M19.9688 116.116V135.348H39.2009M39.2009 135.348H58.433M39.2009 135.353H19.9688V154.585M39.2009 135.353V154.585M39.2009 135.353H58.433V154.585H39.2009M39.2009 154.585H19.9688M39.2009 154.585V173.817H19.9688V154.585M58.433 39.1831V58.4152M58.433 39.1831H77.6696V58.4152M58.433 58.4152V77.6474M58.433 58.4152H77.6696M58.433 77.6474V96.8795M58.433 77.6474H77.6696M58.433 96.8795V116.116M58.433 96.8795H77.6696M58.433 116.116V135.348M58.433 116.116H77.6696M58.433 116.116L58.4374 96.8839L77.6696 96.8795M58.433 135.348H77.6696V116.116M77.6696 58.4152V77.6474M77.6696 77.6474V96.8795M77.6696 96.8795V116.116M96.9283 58.4152V39.1831H77.6962V58.4152M96.9283 58.4152H77.6962M96.9283 58.4152V77.6474M77.6962 58.4152V77.6474M96.9283 77.6474H77.6962M96.9283 77.6474V96.8795M96.9283 77.6474H116.16V96.8795H96.9283M77.6962 77.6474V96.8795M96.9283 96.8795H77.6962M96.9283 96.8795V116.116H77.6962V96.8795M154.563 39.1831V58.4152M154.563 39.1831H135.33V58.4152H154.563M154.563 135.353V154.585M154.563 135.353H135.33M154.563 154.585V173.817M154.563 154.585H135.33M154.563 173.817H135.33M135.33 135.353V154.585M135.33 135.353H116.098V154.585M135.33 154.585V173.817M135.33 154.585H116.098M135.33 173.817H116.098V154.585" stroke="#08678C" stroke-width="0.5" stroke-linecap="round" stroke-linejoin="round"/>
<path d="M96.884 154.585H116.116V173.817H96.884V154.585Z" stroke="#08678C" stroke-width="0.5" stroke-linecap="round" stroke-linejoin="round"/>
<path d="M144.947 100.212C146.785 100.212 148.275 98.7221 148.275 96.884C148.275 95.046 146.785 93.5559 144.947 93.5559C143.108 93.5559 141.618 95.046 141.618 96.884C141.618 98.7221 143.108 100.212 144.947 100.212Z" fill="#08678C"/>
<path d="M116.16 61.7434C117.998 61.7434 119.489 60.2534 119.489 58.4153C119.489 56.5772 117.998 55.0872 116.16 55.0872C114.322 55.0872 112.832 56.5772 112.832 58.4153C112.832 60.2534 114.322 61.7434 116.16 61.7434Z" fill="#08678C"/>
<path d="M116.112 124.45C117.95 124.45 119.44 122.96 119.44 121.122C119.44 119.284 117.95 117.793 116.112 117.793C114.273 117.793 112.783 119.284 112.783 121.122C112.783 122.96 114.273 124.45 116.112 124.45Z" fill="#08678C"/>
<path d="M87.2722 148.692C89.1103 148.692 90.6003 147.202 90.6003 145.364C90.6003 143.525 89.1103 142.035 87.2722 142.035C85.4341 142.035 83.9441 143.525 83.9441 145.364C83.9441 147.202 85.4341 148.692 87.2722 148.692Z" fill="#08678C"/>
<path d="M58.4375 172.929C60.2756 172.929 61.7656 171.439 61.7656 169.601C61.7656 167.763 60.2756 166.273 58.4375 166.273C56.5994 166.273 55.1094 167.763 55.1094 169.601C55.1094 171.439 56.5994 172.929 58.4375 172.929Z" fill="#08678C"/>
</svg>
