<svg width="71" height="126" viewBox="0 0 71 126" fill="none" xmlns="http://www.w3.org/2000/svg">
<path d="M21.5 19.6879C6.61063 19.6879 -5.5 30.2849 -5.5 43.3134C-5.5 45.4889 -3.48625 47.2509 -1 47.2509C1.48625 47.2509 3.5 45.4889 3.5 43.3134C3.5 34.6261 11.5775 27.563 21.5 27.563C23.9862 27.563 26 25.801 26 23.6255C26 21.45 23.9862 19.6879 21.5 19.6879ZM-0.983128 113.001C-0.983128 113.776 -0.721565 114.532 -0.229378 115.177L6.66406 124.243C7.49937 125.34 8.90562 126 10.4103 126H32.5869C34.0944 126 35.5006 125.34 36.3331 124.243L43.2266 115.177C43.7159 114.532 43.9775 113.774 43.9803 113.001L43.9944 102.375H-0.994377L-0.983128 113.001ZM21.5 0C-7.26625 0 -28 20.4188 -28 43.3134C-28 54.2327 -23.3734 64.1948 -15.7487 71.8066C-11.0688 76.4801 -3.72812 86.2772 -1.00562 94.4871V94.5019H12.4944V94.4723C12.4916 93.2984 12.2919 92.1319 11.8897 91.0097C10.3175 86.6267 5.47156 75.0699 -5.59562 64.0201C-11.3725 58.254 -14.4606 50.9399 -14.4859 43.3134C-14.5422 25.1907 2.29625 11.8127 21.5 11.8127C41.3506 11.8127 57.5 25.9437 57.5 43.3134C57.5 50.935 54.3388 58.2885 48.5984 64.0201C37.5988 74.9985 32.7303 86.5307 31.1328 90.958C30.7205 92.0963 30.5099 93.2832 30.5084 94.4772V94.5019H44.0084V94.4895C46.7309 86.2772 54.0716 76.48 58.7516 71.8091C66.3734 64.1948 71 54.2327 71 43.3134C71 19.3926 48.8375 0 21.5 0Z" fill="white" fill-opacity="0.45"/>
</svg>
