<svg width="151" height="325" viewBox="0 0 151 325" fill="none" xmlns="http://www.w3.org/2000/svg">
<path d="M132 50.7116C92.295 50.7116 60 78.0071 60 111.565C60 117.169 65.37 121.708 72 121.708C78.63 121.708 84 117.169 84 111.565C84 89.189 105.54 70.9962 132 70.9962C138.63 70.9962 144 66.4575 144 60.8539C144 55.2502 138.63 50.7116 132 50.7116ZM72.045 291.065C72.045 293.062 72.7425 295.008 74.055 296.669L92.4375 320.022C94.665 322.849 98.415 324.548 102.428 324.548H161.565C165.585 324.548 169.335 322.849 171.555 320.022L189.938 296.669C191.243 295.008 191.94 293.056 191.948 291.065L191.985 263.694H72.015L72.045 291.065ZM132 0C55.29 0 0 52.5942 0 111.565C0 139.691 12.3375 165.351 32.67 184.958C45.15 196.995 64.725 222.231 71.985 243.377V243.415H107.985V243.339C107.978 240.316 107.445 237.311 106.373 234.421C102.18 223.131 89.2575 193.363 59.745 164.901C44.34 150.049 36.105 131.21 36.0375 111.565C35.8875 64.8854 80.79 30.4269 132 30.4269C184.935 30.4269 228 66.8252 228 111.565C228 131.197 219.57 150.138 204.263 164.901C174.93 193.179 161.947 222.884 157.688 234.287C156.588 237.219 156.026 240.276 156.023 243.352V243.415H192.023V243.384C199.283 222.231 218.858 196.995 231.338 184.964C251.663 165.351 264 139.691 264 111.565C264 49.9509 204.9 0 132 0Z" fill="#011125" fill-opacity="0.53"/>
</svg>
