<svg width="167" height="325" viewBox="0 0 167 325" fill="none" xmlns="http://www.w3.org/2000/svg">
<path d="M35 50.7119C-4.705 50.7119 -37 78.0076 -37 111.566C-37 117.17 -31.63 121.709 -25 121.709C-18.37 121.709 -13 117.17 -13 111.566C-13 89.1896 8.54 70.9967 35 70.9967C41.63 70.9967 47 66.458 47 60.8543C47 55.2507 41.63 50.7119 35 50.7119ZM-24.955 291.068C-24.955 293.064 -24.2575 295.01 -22.945 296.671L-4.56251 320.024C-2.33501 322.851 1.415 324.55 5.4275 324.55H64.565C68.585 324.55 72.335 322.851 74.555 320.024L92.9375 296.671C94.2425 295.01 94.94 293.058 94.9475 291.068L94.985 263.696H-24.985L-24.955 291.068ZM35 0C-41.71 0 -97 52.5946 -97 111.566C-97 139.692 -84.6625 165.353 -64.33 184.959C-51.85 196.997 -32.275 222.232 -25.015 243.379V243.417H10.985V243.341C10.9775 240.318 10.445 237.313 9.37249 234.422C5.17999 223.133 -7.74251 193.365 -37.255 164.903C-52.66 150.05 -60.895 131.211 -60.9625 111.566C-61.1125 64.8859 -16.21 30.4272 35 30.4272C87.935 30.4272 131 66.8257 131 111.566C131 131.198 122.57 150.139 107.263 164.903C77.93 193.181 64.9475 222.885 60.6875 234.289C59.588 237.221 59.0265 240.278 59.0225 243.354V243.417H95.0225V243.386C102.282 222.232 121.857 196.997 134.337 184.965C154.662 165.353 167 139.692 167 111.566C167 49.9513 107.9 0 35 0Z" fill="white" fill-opacity="0.45"/>
</svg>
