<svg width="191" height="325" viewBox="0 0 191 325" fill="none" xmlns="http://www.w3.org/2000/svg">
<path d="M59 50.7116C19.295 50.7116 -13 78.0071 -13 111.565C-13 117.169 -7.63 121.708 -1 121.708C5.63 121.708 11 117.169 11 111.565C11 89.189 32.54 70.9962 59 70.9962C65.63 70.9962 71 66.4575 71 60.8539C71 55.2502 65.63 50.7116 59 50.7116ZM-0.955002 291.065C-0.955002 293.062 -0.2575 295.008 1.055 296.669L19.4375 320.022C21.665 322.849 25.415 324.548 29.4275 324.548H88.565C92.585 324.548 96.335 322.849 98.555 320.022L116.938 296.669C118.243 295.008 118.94 293.056 118.948 291.065L118.985 263.694H-0.985001L-0.955002 291.065ZM59 0C-17.71 0 -73 52.5942 -73 111.565C-73 139.691 -60.6625 165.351 -40.33 184.958C-27.85 196.995 -8.27499 222.231 -1.01499 243.377V243.415H34.985V243.339C34.9775 240.316 34.445 237.311 33.3725 234.421C29.18 223.131 16.2575 193.363 -13.255 164.901C-28.66 150.049 -36.895 131.21 -36.9625 111.565C-37.1125 64.8854 7.79 30.4269 59 30.4269C111.935 30.4269 155 66.8252 155 111.565C155 131.197 146.57 150.138 131.263 164.901C101.93 193.179 88.9475 222.884 84.6875 234.287C83.588 237.219 83.0265 240.276 83.0225 243.352V243.415H119.023V243.384C126.283 222.231 145.858 196.995 158.338 184.964C178.663 165.351 191 139.691 191 111.565C191 49.9509 131.9 0 59 0Z" fill="#011125" fill-opacity="0.53"/>
</svg>
