<svg width="45" height="45" viewBox="0 0 45 45" fill="none" xmlns="http://www.w3.org/2000/svg">
<g clip-path="url(#clip0_64_21)">
<path d="M13.1814 0.157848C10.7874 0.270798 9.15259 0.652848 7.72339 1.21445C6.24424 1.7909 4.99054 2.56445 3.74314 3.81635C2.49574 5.06825 1.72759 6.32285 1.15519 7.80425C0.601236 9.2366 0.225936 10.8728 0.120186 13.2681C0.0144365 15.6635 -0.00896352 16.4334 0.00273648 22.5435C0.0144365 28.6536 0.0414365 29.4195 0.157536 31.8199C0.271836 34.2134 0.652536 35.8478 1.21414 37.2775C1.79149 38.7566 2.56414 40.0099 3.81649 41.2577C5.06884 42.5056 6.32254 43.2719 7.80754 43.8452C9.23853 44.3983 10.8752 44.7753 13.2701 44.8802C15.665 44.9851 16.4358 45.0093 22.5441 44.9977C28.6524 44.986 29.4215 44.959 31.8213 44.8451C34.2212 44.7313 35.847 44.3479 37.2771 43.789C38.7563 43.2103 40.0104 42.4389 41.2574 41.1861C42.5043 39.9333 43.272 38.6779 43.844 37.1955C44.3984 35.7645 44.775 34.1279 44.879 31.7348C44.9838 29.3331 45.0086 28.5664 44.9969 22.4571C44.9852 16.3479 44.9577 15.582 44.8439 13.1826C44.73 10.7832 44.3489 9.1538 43.7877 7.72325C43.2095 6.2441 42.4377 4.99175 41.1858 3.743C39.9339 2.49425 38.6775 1.727 37.1957 1.1564C35.7638 0.602448 34.128 0.224898 31.7331 0.121398C29.3382 0.0178979 28.5674 -0.00865209 22.4568 0.00304791C16.3463 0.0147479 15.5813 0.0408479 13.1814 0.157848ZM13.4442 40.8325C11.2505 40.737 10.0593 40.3726 9.26554 40.0675C8.21434 39.6625 7.46554 39.1729 6.67444 38.3894C5.88334 37.606 5.39734 36.8545 4.98694 35.8055C4.67869 35.0117 4.30744 33.8219 4.20484 31.6282C4.09324 29.2571 4.06984 28.5452 4.05679 22.5381C4.04374 16.5311 4.06669 15.8201 4.17064 13.4481C4.26424 11.2562 4.63099 10.0637 4.93564 9.27035C5.34064 8.2178 5.82844 7.47035 6.61369 6.6797C7.39894 5.88905 8.14819 5.40215 9.19804 4.99175C9.99094 4.68215 11.1807 4.31405 13.3736 4.20965C15.7464 4.09715 16.4574 4.07465 22.4636 4.0616C28.4697 4.04855 29.1825 4.07105 31.5563 4.17545C33.7482 4.27085 34.9412 4.634 35.7336 4.94045C36.7853 5.34545 37.5336 5.8319 38.3243 6.6185C39.1149 7.4051 39.6023 8.15165 40.0127 9.20375C40.3227 9.9944 40.6908 11.1837 40.7943 13.3779C40.9073 15.7508 40.9329 16.4622 40.9437 22.4679C40.9545 28.4736 40.9334 29.1869 40.8294 31.558C40.7336 33.7517 40.37 34.9433 40.0644 35.738C39.6594 36.7887 39.1712 37.538 38.3855 38.3282C37.5998 39.1184 36.8514 39.6053 35.8011 40.0157C35.0091 40.3249 33.818 40.6938 31.6269 40.7982C29.2541 40.9098 28.5431 40.9333 22.5347 40.9463C16.5263 40.9594 15.8171 40.9351 13.4442 40.8325ZM31.7867 10.475C31.7876 11.009 31.9468 11.5308 32.2443 11.9744C32.5417 12.4179 32.9641 12.7633 33.4578 12.9668C33.9516 13.1703 34.4946 13.2228 35.0182 13.1177C35.5418 13.0125 36.0224 12.7545 36.3994 12.3762C36.7763 11.9979 37.0326 11.5163 37.1358 10.9923C37.239 10.4683 37.1845 9.92547 36.9792 9.43247C36.7739 8.93947 36.4269 8.51842 35.9823 8.22259C35.5377 7.92676 35.0153 7.76943 34.4813 7.7705C33.7654 7.77193 33.0793 8.05764 32.574 8.56481C32.0687 9.07197 31.7855 9.75907 31.7867 10.475ZM10.9472 22.5229C10.9598 28.9039 16.142 34.0649 22.5216 34.0527C28.9013 34.0406 34.0659 28.8589 34.0538 22.4778C34.0416 16.0968 28.8581 10.9344 22.4775 10.947C16.097 10.9596 10.935 16.1427 10.9472 22.5229ZM14.9999 22.5147C14.997 21.0314 15.434 19.5804 16.2556 18.3454C17.0773 17.1104 18.2468 16.1468 19.6161 15.5764C20.9855 15.006 22.4932 14.8545 23.9487 15.141C25.4041 15.4275 26.7419 16.1392 27.7929 17.186C28.8439 18.2329 29.5609 19.5678 29.8531 21.0221C30.1454 22.4765 29.9999 23.9848 29.4349 25.3564C28.87 26.728 27.911 27.9012 26.6792 28.7278C25.4475 29.5544 23.9983 29.9971 22.5149 30C21.5299 30.0021 20.5542 29.8101 19.6434 29.4351C18.7327 29.06 17.9047 28.5092 17.2069 27.8141C16.509 27.119 15.9549 26.2932 15.5762 25.3839C15.1976 24.4747 15.0017 23.4997 14.9999 22.5147Z" fill="white"/>
</g>
<defs>
<clipPath id="clip0_64_21">
<rect width="45" height="45" fill="white"/>
</clipPath>
</defs>
</svg>
