<svg width="38" height="38" viewBox="0 0 38 38" fill="none" xmlns="http://www.w3.org/2000/svg">
<path d="M19 5.93762C13.2849 5.93762 8.63636 9.13354 8.63636 13.0628C8.63636 13.7189 9.40932 14.2503 10.3636 14.2503C11.318 14.2503 12.0909 13.7189 12.0909 13.0628C12.0909 10.4428 15.1914 8.31266 19 8.31266C19.9543 8.31266 20.7273 7.78125 20.7273 7.12514C20.7273 6.46903 19.9543 5.93762 19 5.93762ZM10.3701 34.0797C10.3701 34.3135 10.4705 34.5413 10.6594 34.7358L13.3054 37.4701C13.626 37.8011 14.1658 38 14.7434 38H23.2556C23.8342 38 24.374 37.8011 24.6935 37.4701L27.3395 34.7358C27.5273 34.5413 27.6277 34.3127 27.6288 34.0797L27.6342 30.8749H10.3658L10.3701 34.0797ZM19 0C7.95841 0 0 6.15805 0 13.0628C0 16.3559 1.77585 19.3603 4.7025 21.656C6.49886 23.0654 9.31648 26.0201 10.3615 28.4961V28.5006H15.5433V28.4917C15.5422 28.1376 15.4656 27.7858 15.3112 27.4474C14.7077 26.1255 12.8477 22.6401 8.59966 19.3076C6.38227 17.5687 5.19693 15.3628 5.18722 13.0628C5.16563 7.59718 11.6289 3.56257 19 3.56257C26.6194 3.56257 32.8182 7.82429 32.8182 13.0628C32.8182 15.3614 31.6048 17.5791 29.4014 19.3076C25.1793 22.6186 23.3106 26.0966 22.6974 27.4318C22.5392 27.7751 22.4584 28.133 22.4578 28.4931V28.5006H27.6396V28.4968C28.6846 26.0201 31.5022 23.0654 33.2986 21.6567C36.2241 19.3603 38 16.3559 38 13.0628C38 5.84855 29.4932 0 19 0Z" fill="#08678C"/>
</svg>
