<svg width="67" height="74" viewBox="0 0 67 74" fill="none" xmlns="http://www.w3.org/2000/svg">
<path d="M33.5 11.5627C23.4234 11.5627 15.2273 17.7864 15.2273 25.438C15.2273 26.7157 16.5901 27.7505 18.2727 27.7505C19.9553 27.7505 21.3182 26.7157 21.3182 25.438C21.3182 20.3359 26.7848 16.1878 33.5 16.1878C35.1826 16.1878 36.5455 15.153 36.5455 13.8753C36.5455 12.5976 35.1826 11.5627 33.5 11.5627ZM18.2841 66.3657C18.2841 66.821 18.4612 67.2647 18.7943 67.6434L23.4595 72.968C24.0248 73.6127 24.9765 74 25.9949 74H41.0032C42.0235 74 42.9752 73.6127 43.5386 72.968L48.2038 67.6434C48.535 67.2647 48.712 66.8196 48.7139 66.3657L48.7235 60.1247H18.2765L18.2841 66.3657ZM33.5 0C14.0319 0 0 11.992 0 25.438C0 31.851 3.13111 37.7017 8.29125 42.1722C11.4585 44.9169 16.4264 50.6708 18.2689 55.4924V55.5011H27.4053V55.4837C27.4034 54.7943 27.2682 54.1092 26.9961 53.4501C25.932 50.876 22.6525 44.0887 15.1626 37.5991C11.253 34.2127 9.16301 29.9171 9.14588 25.438C9.10781 14.7945 20.5035 6.93764 33.5 6.93764C46.9343 6.93764 57.8636 15.2368 57.8636 25.438C57.8636 29.9142 55.7242 34.2329 51.8393 37.5991C44.3951 44.0468 41.1003 50.8196 40.0192 53.4198C39.7401 54.0883 39.5976 54.7853 39.5966 55.4866V55.5011H48.733V55.4939C50.5755 50.6708 55.5434 44.9169 58.7107 42.1736C63.8689 37.7017 67 31.851 67 25.438C67 11.3893 52.0011 0 33.5 0Z" fill="white"/>
</svg>
