<svg width="38" height="40" viewBox="0 0 38 40" fill="none" xmlns="http://www.w3.org/2000/svg">
<path d="M19 6.25012C13.2849 6.25012 8.63636 9.61425 8.63636 13.7503C8.63636 14.4409 9.40932 15.0003 10.3636 15.0003C11.318 15.0003 12.0909 14.4409 12.0909 13.7503C12.0909 10.9924 15.1914 8.75017 19 8.75017C19.9543 8.75017 20.7273 8.19079 20.7273 7.50015C20.7273 6.80951 19.9543 6.25012 19 6.25012ZM10.3701 35.8734C10.3701 36.1195 10.4705 36.3593 10.6594 36.564L13.3054 39.4422C13.626 39.7906 14.1658 40 14.7434 40H23.2556C23.8342 40 24.374 39.7906 24.6935 39.4422L27.3395 36.564C27.5273 36.3593 27.6277 36.1187 27.6288 35.8734L27.6342 32.4999H10.3658L10.3701 35.8734ZM19 0C7.95841 0 0 6.48216 0 13.7503C0 17.2167 1.77585 20.3793 4.7025 22.7958C6.49886 24.2794 9.31648 27.3896 10.3615 29.9959V30.0006H15.5433V29.9912C15.5422 29.6185 15.4656 29.2482 15.3112 28.892C14.7077 27.5005 12.8477 23.8317 8.59966 20.3238C6.38227 18.4933 5.19693 16.1714 5.18722 13.7503C5.16562 7.99703 11.6289 3.75007 19 3.75007C26.6194 3.75007 32.8182 8.2361 32.8182 13.7503C32.8182 16.1698 31.6048 18.5043 29.4014 20.3238C25.1793 23.8091 23.3106 27.4701 22.6974 28.8756C22.5392 29.2369 22.4584 29.6137 22.4578 29.9928V30.0006H27.6396V29.9967C28.6846 27.3896 31.5022 24.2794 33.2986 22.7965C36.2241 20.3793 38 17.2167 38 13.7503C38 6.15637 29.4932 0 19 0Z" fill="#011125"/>
</svg>
