<svg width="45" height="45" viewBox="0 0 45 45" fill="none" xmlns="http://www.w3.org/2000/svg">
<g clip-path="url(#clip0_64_23)">
<path fill-rule="evenodd" clip-rule="evenodd" d="M38.4432 6.53915C34.2136 2.32442 28.5882 0.00213838 22.5945 0C10.2439 0 0.192308 10.0023 0.18801 22.2969C0.185861 26.2272 1.21831 30.0634 3.17899 33.4442L0 45L11.8779 41.8993C15.1504 43.6764 18.8354 44.6119 22.5849 44.613H22.5945C34.943 44.613 44.9958 34.6096 45 22.315C45.0021 16.3565 42.674 10.755 38.4432 6.54022V6.53915ZM22.5945 40.8473H22.587C19.2458 40.8463 15.968 39.9523 13.1081 38.2641L12.428 37.8622L5.37925 39.7022L7.26043 32.8625L6.81779 32.1612C4.9538 29.2103 3.96862 25.7995 3.97077 22.298C3.97508 12.0797 12.3292 3.76568 22.6021 3.76568C27.5763 3.76782 32.2519 5.69771 35.7681 9.20144C39.2845 12.7041 41.2194 17.3615 41.2173 22.3129C41.2129 32.5322 32.8589 40.8463 22.5945 40.8463V40.8473ZM32.8094 26.9671C32.2496 26.6881 29.4972 25.3408 28.9836 25.1548C28.4701 24.9687 28.0974 24.8758 27.7245 25.4339C27.3518 25.992 26.2785 27.2472 25.9519 27.6182C25.6252 27.9903 25.2986 28.0363 24.7389 27.7572C24.1792 27.4781 22.3754 26.8901 20.2364 24.9922C18.5723 23.5146 17.4484 21.6907 17.1219 21.1325C16.7952 20.5744 17.0875 20.2729 17.3668 19.996C17.6181 19.7458 17.9265 19.3448 18.2069 19.0198C18.4874 18.6947 18.5798 18.4617 18.7666 18.0906C18.9536 17.7186 18.8601 17.3936 18.7205 17.1145C18.5808 16.8354 17.4614 14.0929 16.994 12.9778C16.5395 11.8915 16.0776 12.0391 15.7349 12.0209C15.4082 12.0048 15.0355 12.0016 14.6616 12.0016C14.2878 12.0016 13.6818 12.1406 13.1683 12.6988C12.6547 13.2568 11.2086 14.6051 11.2086 17.3465C11.2086 20.0879 13.2145 22.7385 13.4949 23.1106C13.7752 23.4826 17.443 29.1098 23.0586 31.524C24.3941 32.0981 25.4373 32.4413 26.2505 32.6979C27.5914 33.1224 28.8118 33.0626 29.7765 32.9193C30.852 32.7589 33.0887 31.571 33.555 30.2698C34.0213 28.9686 34.0213 27.8523 33.8816 27.6203C33.742 27.3883 33.3681 27.2482 32.8084 26.9692L32.8094 26.9671Z" fill="white"/>
</g>
<defs>
<clipPath id="clip0_64_23">
<rect width="45" height="45" fill="white"/>
</clipPath>
</defs>
</svg>
