<svg width="549" height="155" viewBox="0 0 549 155" fill="none" xmlns="http://www.w3.org/2000/svg">
<mask id="path-1-outside-1_777_24" maskUnits="userSpaceOnUse" x="9" y="52" width="533" height="98" fill="black">
<rect fill="white" x="9" y="52" width="533" height="98"/>
<path d="M10.88 147V53.56H14.08V147H10.88ZM64.424 148.664C59.7307 148.664 55.1653 147.597 50.728 145.464C46.376 143.331 42.792 140.131 39.976 135.864C37.2453 131.597 35.88 126.307 35.88 119.992V81.72H39.208V119.48C39.208 125.283 40.4027 130.147 42.792 134.072C45.2667 137.997 48.424 140.941 52.264 142.904C56.104 144.781 60.1147 145.72 64.296 145.72C68.648 145.72 72.744 144.739 76.584 142.776C80.5093 140.813 83.6667 137.912 86.056 134.072C88.5307 130.147 89.768 125.283 89.768 119.48V81.72H93.096V119.992C93.096 126.307 91.688 131.597 88.872 135.864C86.1413 140.131 82.5573 143.331 78.12 145.464C73.768 147.597 69.2027 148.664 64.424 148.664ZM114.88 147V107.064C114.88 102.115 115.904 97.6347 117.952 93.624C120.085 89.528 123.072 86.2853 126.912 83.896C130.837 81.4213 135.488 80.184 140.864 80.184C143.68 80.184 146.795 80.696 150.208 81.72C153.621 82.6587 156.779 84.4933 159.68 87.224C162.667 89.9547 164.843 93.9227 166.208 99.128H166.336C167.787 93.9227 170.005 89.9547 172.992 87.224C175.979 84.4933 179.179 82.6587 182.592 81.72C186.005 80.696 189.12 80.184 191.936 80.184C197.312 80.184 201.92 81.4213 205.76 83.896C209.685 86.2853 212.672 89.528 214.72 93.624C216.768 97.6347 217.792 102.115 217.792 107.064V147H214.72V107.064C214.72 102.371 213.696 98.232 211.648 94.648C209.685 91.064 206.997 88.248 203.584 86.2C200.171 84.0667 196.245 83 191.808 83C187.285 83 183.189 84.0667 179.52 86.2C175.936 88.3333 173.077 91.2347 170.944 94.904C168.896 98.488 167.872 102.541 167.872 107.064V147H164.672V107.064C164.672 102.541 163.605 98.488 161.472 94.904C159.339 91.2347 156.48 88.3333 152.896 86.2C149.312 84.0667 145.259 83 140.736 83C136.384 83 132.459 84.0667 128.96 86.2C125.547 88.248 122.859 91.064 120.896 94.648C118.933 98.232 117.952 102.371 117.952 107.064V147H114.88ZM239.505 147V81.72H242.705V147H239.505ZM241.169 67.384C240.316 67.384 239.548 67.0427 238.865 66.36C238.182 65.6773 237.841 64.9093 237.841 64.056C237.841 63.1173 238.182 62.3493 238.865 61.752C239.548 61.0693 240.316 60.728 241.169 60.728C242.108 60.728 242.876 61.0693 243.473 61.752C244.156 62.3493 244.497 63.1173 244.497 64.056C244.497 64.9093 244.156 65.6773 243.473 66.36C242.876 67.0427 242.108 67.384 241.169 67.384ZM264.505 147V108.728C264.505 102.328 265.87 97.0373 268.601 92.856C271.417 88.5893 275.001 85.3893 279.353 83.256C283.705 81.1227 288.228 80.056 292.921 80.056C297.7 80.056 302.222 81.1227 306.489 83.256C310.841 85.3893 314.382 88.5893 317.113 92.856C319.929 97.0373 321.337 102.328 321.337 108.728V147H318.137V109.24C318.137 103.437 316.9 98.616 314.425 94.776C312.036 90.8507 308.878 87.9067 304.953 85.944C301.113 83.9813 297.06 83 292.793 83C288.612 83 284.601 83.9813 280.761 85.944C276.921 87.8213 273.764 90.7227 271.289 94.648C268.9 98.488 267.705 103.352 267.705 109.24V147H264.505ZM372.954 148.664C366.469 148.664 360.751 147.171 355.802 144.184C350.853 141.112 346.97 136.973 344.154 131.768C341.338 126.563 339.93 120.76 339.93 114.36C339.93 107.96 341.338 102.157 344.154 96.952C346.97 91.7467 350.853 87.6507 355.802 84.664C360.751 81.592 366.469 80.056 372.954 80.056C379.439 80.056 385.157 81.592 390.106 84.664C395.055 87.6507 398.938 91.7467 401.754 96.952C404.57 102.072 405.978 107.875 405.978 114.36C405.978 120.76 404.57 126.563 401.754 131.768C398.938 136.973 395.055 141.112 390.106 144.184C385.157 147.171 379.439 148.664 372.954 148.664ZM372.954 145.72C378.757 145.72 383.877 144.355 388.314 141.624C392.837 138.808 396.378 135.053 398.938 130.36C401.498 125.581 402.778 120.248 402.778 114.36C402.778 108.472 401.498 103.181 398.938 98.488C396.378 93.7093 392.837 89.9547 388.314 87.224C383.877 84.408 378.757 83 372.954 83C367.151 83 361.989 84.408 357.466 87.224C353.029 89.9547 349.53 93.7093 346.97 98.488C344.41 103.181 343.13 108.472 343.13 114.36C343.13 120.248 344.41 125.581 346.97 130.36C349.53 135.053 353.029 138.808 357.466 141.624C361.989 144.355 367.151 145.72 372.954 145.72ZM489.695 147V144.056H519.775C523.444 144.056 526.516 143.288 528.991 141.752C531.466 140.131 533.343 138.083 534.623 135.608C535.903 133.133 536.543 130.616 536.543 128.056C536.543 125.667 535.988 123.405 534.879 121.272C533.855 119.139 532.234 117.389 530.015 116.024C527.796 114.659 524.98 113.976 521.567 113.976H506.975C502.794 113.976 499.295 113.251 496.479 111.8C493.748 110.264 491.7 108.301 490.335 105.912C489.055 103.437 488.415 100.877 488.415 98.232C488.415 95.416 489.055 92.7707 490.335 90.296C491.7 87.736 493.663 85.688 496.223 84.152C498.868 82.5307 502.068 81.72 505.823 81.72H534.879V84.664H506.207C501.514 84.664 497.93 86.072 495.455 88.888C493.066 91.6187 491.871 94.6907 491.871 98.104C491.871 101.347 493.108 104.291 495.583 106.936C498.143 109.581 502.068 110.904 507.359 110.904H520.415C525.023 110.904 528.778 111.715 531.679 113.336C534.58 114.957 536.714 117.048 538.079 119.608C539.444 122.168 540.127 124.899 540.127 127.8C540.127 130.872 539.359 133.901 537.823 136.888C536.287 139.789 534.111 142.221 531.295 144.184C528.479 146.061 525.066 147 521.055 147H489.695Z"/>
</mask>
<path d="M10.88 147V53.56H14.08V147H10.88ZM64.424 148.664C59.7307 148.664 55.1653 147.597 50.728 145.464C46.376 143.331 42.792 140.131 39.976 135.864C37.2453 131.597 35.88 126.307 35.88 119.992V81.72H39.208V119.48C39.208 125.283 40.4027 130.147 42.792 134.072C45.2667 137.997 48.424 140.941 52.264 142.904C56.104 144.781 60.1147 145.72 64.296 145.72C68.648 145.72 72.744 144.739 76.584 142.776C80.5093 140.813 83.6667 137.912 86.056 134.072C88.5307 130.147 89.768 125.283 89.768 119.48V81.72H93.096V119.992C93.096 126.307 91.688 131.597 88.872 135.864C86.1413 140.131 82.5573 143.331 78.12 145.464C73.768 147.597 69.2027 148.664 64.424 148.664ZM114.88 147V107.064C114.88 102.115 115.904 97.6347 117.952 93.624C120.085 89.528 123.072 86.2853 126.912 83.896C130.837 81.4213 135.488 80.184 140.864 80.184C143.68 80.184 146.795 80.696 150.208 81.72C153.621 82.6587 156.779 84.4933 159.68 87.224C162.667 89.9547 164.843 93.9227 166.208 99.128H166.336C167.787 93.9227 170.005 89.9547 172.992 87.224C175.979 84.4933 179.179 82.6587 182.592 81.72C186.005 80.696 189.12 80.184 191.936 80.184C197.312 80.184 201.92 81.4213 205.76 83.896C209.685 86.2853 212.672 89.528 214.72 93.624C216.768 97.6347 217.792 102.115 217.792 107.064V147H214.72V107.064C214.72 102.371 213.696 98.232 211.648 94.648C209.685 91.064 206.997 88.248 203.584 86.2C200.171 84.0667 196.245 83 191.808 83C187.285 83 183.189 84.0667 179.52 86.2C175.936 88.3333 173.077 91.2347 170.944 94.904C168.896 98.488 167.872 102.541 167.872 107.064V147H164.672V107.064C164.672 102.541 163.605 98.488 161.472 94.904C159.339 91.2347 156.48 88.3333 152.896 86.2C149.312 84.0667 145.259 83 140.736 83C136.384 83 132.459 84.0667 128.96 86.2C125.547 88.248 122.859 91.064 120.896 94.648C118.933 98.232 117.952 102.371 117.952 107.064V147H114.88ZM239.505 147V81.72H242.705V147H239.505ZM241.169 67.384C240.316 67.384 239.548 67.0427 238.865 66.36C238.182 65.6773 237.841 64.9093 237.841 64.056C237.841 63.1173 238.182 62.3493 238.865 61.752C239.548 61.0693 240.316 60.728 241.169 60.728C242.108 60.728 242.876 61.0693 243.473 61.752C244.156 62.3493 244.497 63.1173 244.497 64.056C244.497 64.9093 244.156 65.6773 243.473 66.36C242.876 67.0427 242.108 67.384 241.169 67.384ZM264.505 147V108.728C264.505 102.328 265.87 97.0373 268.601 92.856C271.417 88.5893 275.001 85.3893 279.353 83.256C283.705 81.1227 288.228 80.056 292.921 80.056C297.7 80.056 302.222 81.1227 306.489 83.256C310.841 85.3893 314.382 88.5893 317.113 92.856C319.929 97.0373 321.337 102.328 321.337 108.728V147H318.137V109.24C318.137 103.437 316.9 98.616 314.425 94.776C312.036 90.8507 308.878 87.9067 304.953 85.944C301.113 83.9813 297.06 83 292.793 83C288.612 83 284.601 83.9813 280.761 85.944C276.921 87.8213 273.764 90.7227 271.289 94.648C268.9 98.488 267.705 103.352 267.705 109.24V147H264.505ZM372.954 148.664C366.469 148.664 360.751 147.171 355.802 144.184C350.853 141.112 346.97 136.973 344.154 131.768C341.338 126.563 339.93 120.76 339.93 114.36C339.93 107.96 341.338 102.157 344.154 96.952C346.97 91.7467 350.853 87.6507 355.802 84.664C360.751 81.592 366.469 80.056 372.954 80.056C379.439 80.056 385.157 81.592 390.106 84.664C395.055 87.6507 398.938 91.7467 401.754 96.952C404.57 102.072 405.978 107.875 405.978 114.36C405.978 120.76 404.57 126.563 401.754 131.768C398.938 136.973 395.055 141.112 390.106 144.184C385.157 147.171 379.439 148.664 372.954 148.664ZM372.954 145.72C378.757 145.72 383.877 144.355 388.314 141.624C392.837 138.808 396.378 135.053 398.938 130.36C401.498 125.581 402.778 120.248 402.778 114.36C402.778 108.472 401.498 103.181 398.938 98.488C396.378 93.7093 392.837 89.9547 388.314 87.224C383.877 84.408 378.757 83 372.954 83C367.151 83 361.989 84.408 357.466 87.224C353.029 89.9547 349.53 93.7093 346.97 98.488C344.41 103.181 343.13 108.472 343.13 114.36C343.13 120.248 344.41 125.581 346.97 130.36C349.53 135.053 353.029 138.808 357.466 141.624C361.989 144.355 367.151 145.72 372.954 145.72ZM489.695 147V144.056H519.775C523.444 144.056 526.516 143.288 528.991 141.752C531.466 140.131 533.343 138.083 534.623 135.608C535.903 133.133 536.543 130.616 536.543 128.056C536.543 125.667 535.988 123.405 534.879 121.272C533.855 119.139 532.234 117.389 530.015 116.024C527.796 114.659 524.98 113.976 521.567 113.976H506.975C502.794 113.976 499.295 113.251 496.479 111.8C493.748 110.264 491.7 108.301 490.335 105.912C489.055 103.437 488.415 100.877 488.415 98.232C488.415 95.416 489.055 92.7707 490.335 90.296C491.7 87.736 493.663 85.688 496.223 84.152C498.868 82.5307 502.068 81.72 505.823 81.72H534.879V84.664H506.207C501.514 84.664 497.93 86.072 495.455 88.888C493.066 91.6187 491.871 94.6907 491.871 98.104C491.871 101.347 493.108 104.291 495.583 106.936C498.143 109.581 502.068 110.904 507.359 110.904H520.415C525.023 110.904 528.778 111.715 531.679 113.336C534.58 114.957 536.714 117.048 538.079 119.608C539.444 122.168 540.127 124.899 540.127 127.8C540.127 130.872 539.359 133.901 537.823 136.888C536.287 139.789 534.111 142.221 531.295 144.184C528.479 146.061 525.066 147 521.055 147H489.695Z" fill="white"/>
<path d="M10.88 147H9.88V148H10.88V147ZM10.88 53.56V52.56H9.88V53.56H10.88ZM14.08 53.56H15.08V52.56H14.08V53.56ZM14.08 147V148H15.08V147H14.08ZM11.88 147V53.56H9.88V147H11.88ZM10.88 54.56H14.08V52.56H10.88V54.56ZM13.08 53.56V147H15.08V53.56H13.08ZM14.08 146H10.88V148H14.08V146ZM50.728 145.464L50.2878 146.362L50.2947 146.365L50.728 145.464ZM39.976 135.864L39.1336 136.403L39.1414 136.415L39.976 135.864ZM35.88 81.72V80.72H34.88V81.72H35.88ZM39.208 81.72H40.208V80.72H39.208V81.72ZM42.792 134.072L41.9378 134.592L41.9419 134.599L41.9461 134.605L42.792 134.072ZM52.264 142.904L51.8089 143.794L51.8168 143.798L51.8248 143.802L52.264 142.904ZM76.584 142.776L76.1368 141.882L76.1289 141.886L76.584 142.776ZM86.056 134.072L85.2101 133.539L85.2069 133.544L86.056 134.072ZM89.768 81.72V80.72H88.768V81.72H89.768ZM93.096 81.72H94.096V80.72H93.096V81.72ZM88.872 135.864L88.0373 135.313L88.0297 135.325L88.872 135.864ZM78.12 145.464L77.6867 144.563L77.6798 144.566L78.12 145.464ZM64.424 147.664C59.888 147.664 55.4702 146.634 51.1613 144.563L50.2947 146.365C54.8604 148.56 59.5733 149.664 64.424 149.664V147.664ZM51.1682 144.566C46.9851 142.516 43.534 139.44 40.8106 135.313L39.1414 136.415C42.05 140.822 45.7669 144.146 50.2878 146.362L51.1682 144.566ZM40.8183 135.325C38.2133 131.255 36.88 126.163 36.88 119.992H34.88C34.88 126.451 36.2774 131.94 39.1337 136.403L40.8183 135.325ZM36.88 119.992V81.72H34.88V119.992H36.88ZM35.88 82.72H39.208V80.72H35.88V82.72ZM38.208 81.72V119.48H40.208V81.72H38.208ZM38.208 119.48C38.208 125.418 39.431 130.474 41.9378 134.592L43.6462 133.552C41.3743 129.82 40.208 125.147 40.208 119.48H38.208ZM41.9461 134.605C44.509 138.671 47.7968 141.744 51.8089 143.794L52.7191 142.014C49.0512 140.139 46.0243 137.324 43.6379 133.539L41.9461 134.605ZM51.8248 143.802C55.7984 145.745 59.959 146.72 64.296 146.72V144.72C60.2704 144.72 56.4096 143.818 52.7032 142.006L51.8248 143.802ZM64.296 146.72C68.8047 146.72 73.0569 145.702 77.0391 143.666L76.1289 141.886C72.4311 143.776 68.4913 144.72 64.296 144.72V146.72ZM77.0312 143.67C81.127 141.623 84.4213 138.592 86.9051 134.6L85.2069 133.544C82.9121 137.232 79.8917 140.004 76.1368 141.882L77.0312 143.67ZM86.9019 134.605C89.4997 130.485 90.768 125.424 90.768 119.48H88.768C88.768 125.141 87.5616 129.809 85.2101 133.539L86.9019 134.605ZM90.768 119.48V81.72H88.768V119.48H90.768ZM89.768 82.72H93.096V80.72H89.768V82.72ZM92.096 81.72V119.992H94.096V81.72H92.096ZM92.096 119.992C92.096 126.157 90.7226 131.245 88.0374 135.313L89.7066 136.415C92.6534 131.95 94.096 126.456 94.096 119.992H92.096ZM88.0297 135.325C85.3961 139.44 81.9517 142.512 77.6867 144.563L78.5533 146.365C83.1629 144.149 86.8866 140.821 89.7143 136.403L88.0297 135.325ZM77.6798 144.566C73.4628 146.633 69.0478 147.664 64.424 147.664V149.664C69.3575 149.664 74.0732 148.561 78.5602 146.362L77.6798 144.566ZM114.88 147H113.88V148H114.88V147ZM117.952 93.624L117.065 93.162L117.061 93.1692L117.952 93.624ZM126.912 83.896L127.44 84.7451L127.445 84.7419L126.912 83.896ZM150.208 81.72L149.921 82.6778L149.932 82.6811L149.943 82.6842L150.208 81.72ZM159.68 87.224L158.995 87.9522L159 87.9572L159.005 87.962L159.68 87.224ZM166.208 99.128L165.241 99.3817L165.436 100.128H166.208V99.128ZM166.336 99.128V100.128H167.095L167.299 99.3965L166.336 99.128ZM172.992 87.224L173.667 87.962L173.667 87.962L172.992 87.224ZM182.592 81.72L182.857 82.6842L182.868 82.6811L182.879 82.6778L182.592 81.72ZM205.76 83.896L205.218 84.7366L205.229 84.7435L205.24 84.7502L205.76 83.896ZM214.72 93.624L213.826 94.0712L213.829 94.0788L214.72 93.624ZM217.792 147V148H218.792V147H217.792ZM214.72 147H213.72V148H214.72V147ZM211.648 94.648L210.771 95.1283L210.775 95.1363L210.78 95.1441L211.648 94.648ZM203.584 86.2L203.054 87.048L203.062 87.0528L203.07 87.0575L203.584 86.2ZM179.52 86.2L179.017 85.3354L179.009 85.3407L179.52 86.2ZM170.944 94.904L170.079 94.4014L170.076 94.4079L170.944 94.904ZM167.872 147V148H168.872V147H167.872ZM164.672 147H163.672V148H164.672V147ZM161.472 94.904L160.607 95.4066L160.613 95.4155L161.472 94.904ZM152.896 86.2L153.407 85.3407L153.407 85.3407L152.896 86.2ZM128.96 86.2L129.475 87.0575L129.481 87.0538L128.96 86.2ZM120.896 94.648L121.773 95.1283L121.773 95.1283L120.896 94.648ZM117.952 147V148H118.952V147H117.952ZM115.88 147V107.064H113.88V147H115.88ZM115.88 107.064C115.88 102.257 116.873 97.9351 118.843 94.0788L117.061 93.1692C114.935 97.3342 113.88 101.972 113.88 107.064H115.88ZM118.839 94.0859C120.891 90.1452 123.756 87.0377 127.44 84.7451L126.384 83.0469C122.388 85.533 119.279 88.9108 117.065 93.1621L118.839 94.0859ZM127.445 84.7419C131.187 82.383 135.646 81.184 140.864 81.184V79.184C135.33 79.184 130.488 80.4596 126.379 83.0501L127.445 84.7419ZM140.864 81.184C143.561 81.184 146.577 81.6747 149.921 82.6778L150.495 80.7622C147.012 79.7173 143.799 79.184 140.864 79.184V81.184ZM149.943 82.6842C153.18 83.5745 156.197 85.3191 158.995 87.9522L160.365 86.4958C157.36 83.6676 154.063 81.7429 150.473 80.7558L149.943 82.6842ZM159.005 87.962C161.81 90.5264 163.908 94.3025 165.241 99.3817L167.175 98.8743C165.777 93.5428 163.523 89.3829 160.355 86.486L159.005 87.962ZM166.208 100.128H166.336V98.128H166.208V100.128ZM167.299 99.3965C168.716 94.3127 170.857 90.5306 173.667 87.962L172.317 86.486C169.153 89.3788 166.857 93.5326 165.373 98.8595L167.299 99.3965ZM173.667 87.962C176.554 85.3227 179.617 83.5753 182.857 82.6842L182.327 80.7558C178.74 81.742 175.404 83.6639 172.317 86.486L173.667 87.962ZM182.879 82.6778C186.223 81.6747 189.239 81.184 191.936 81.184V79.184C189.001 79.184 185.788 79.7173 182.305 80.7622L182.879 82.6778ZM191.936 81.184C197.154 81.184 201.567 82.3832 205.218 84.7366L206.302 83.0554C202.273 80.4594 197.47 79.184 191.936 79.184V81.184ZM205.24 84.7502C209.005 87.0421 211.862 90.144 213.826 94.0712L215.614 93.1768C213.482 88.912 210.365 85.5285 206.28 83.0418L205.24 84.7502ZM213.829 94.0788C215.799 97.9351 216.792 102.257 216.792 107.064H218.792C218.792 101.972 217.737 97.3342 215.611 93.1692L213.829 94.0788ZM216.792 107.064V147H218.792V107.064H216.792ZM217.792 146H214.72V148H217.792V146ZM215.72 147V107.064H213.72V147H215.72ZM215.72 107.064C215.72 102.221 214.662 97.9067 212.516 94.1519L210.78 95.1441C212.73 98.5573 213.72 102.52 213.72 107.064H215.72ZM212.525 94.1677C210.48 90.4323 207.668 87.4843 204.099 85.3425L203.07 87.0575C206.326 89.0117 208.891 91.6957 210.771 95.1283L212.525 94.1677ZM204.114 85.352C200.526 83.1093 196.413 82 191.808 82V84C196.078 84 199.816 85.024 203.054 87.048L204.114 85.352ZM191.808 82C187.121 82 182.849 83.1076 179.017 85.3355L180.023 87.0645C183.529 85.0258 187.45 84 191.808 84V82ZM179.009 85.3407C175.276 87.5626 172.297 90.5878 170.079 94.4014L171.809 95.4066C173.858 91.8815 176.596 89.1041 180.031 87.0593L179.009 85.3407ZM170.076 94.4079C167.933 98.1571 166.872 102.384 166.872 107.064H168.872C168.872 102.698 169.859 98.8189 171.812 95.4001L170.076 94.4079ZM166.872 107.064V147H168.872V107.064H166.872ZM167.872 146H164.672V148H167.872V146ZM165.672 147V107.064H163.672V147H165.672ZM165.672 107.064C165.672 102.377 164.564 98.1442 162.331 94.3925L160.613 95.4155C162.646 98.8318 163.672 102.706 163.672 107.064H165.672ZM162.337 94.4014C160.119 90.5878 157.14 87.5626 153.407 85.3407L152.385 87.0593C155.82 89.1041 158.558 91.8815 160.607 95.4066L162.337 94.4014ZM153.407 85.3407C149.656 83.1076 145.423 82 140.736 82V84C145.094 84 148.968 85.0258 152.385 87.0593L153.407 85.3407ZM140.736 82C136.212 82 132.105 83.1112 128.439 85.3462L129.481 87.0538C132.813 85.0221 136.556 84 140.736 84V82ZM128.446 85.3425C124.876 87.4843 122.064 90.4323 120.019 94.1677L121.773 95.1283C123.653 91.6957 126.218 89.0117 129.474 87.0575L128.446 85.3425ZM120.019 94.1677C117.964 97.9196 116.952 102.228 116.952 107.064H118.952C118.952 102.513 119.902 98.5444 121.773 95.1283L120.019 94.1677ZM116.952 107.064V147H118.952V107.064H116.952ZM117.952 146H114.88V148H117.952V146ZM239.505 147H238.505V148H239.505V147ZM239.505 81.72V80.72H238.505V81.72H239.505ZM242.705 81.72H243.705V80.72H242.705V81.72ZM242.705 147V148H243.705V147H242.705ZM238.865 66.36L239.572 65.6529L239.572 65.6529L238.865 66.36ZM238.865 61.752L239.524 62.5046L239.549 62.4827L239.572 62.4591L238.865 61.752ZM243.473 61.752L242.72 62.4105L242.764 62.4607L242.814 62.5046L243.473 61.752ZM243.473 66.36L242.766 65.6529L242.742 65.6764L242.72 65.7015L243.473 66.36ZM240.505 147V81.72H238.505V147H240.505ZM239.505 82.72H242.705V80.72H239.505V82.72ZM241.705 81.72V147H243.705V81.72H241.705ZM242.705 146H239.505V148H242.705V146ZM241.169 66.384C240.617 66.384 240.094 66.1749 239.572 65.6529L238.158 67.0671C239.001 67.9105 240.015 68.384 241.169 68.384V66.384ZM239.572 65.6529C239.05 65.1309 238.841 64.6084 238.841 64.056H236.841C236.841 65.2102 237.315 66.2237 238.158 67.0671L239.572 65.6529ZM238.841 64.056C238.841 63.3942 239.066 62.9046 239.524 62.5046L238.206 60.9994C237.298 61.7941 236.841 62.8404 236.841 64.056H238.841ZM239.572 62.4591C240.094 61.9371 240.617 61.728 241.169 61.728V59.728C240.015 59.728 239.001 60.2015 238.158 61.0449L239.572 62.4591ZM241.169 61.728C241.831 61.728 242.32 61.9533 242.72 62.4105L244.226 61.0935C243.431 60.1853 242.385 59.728 241.169 59.728V61.728ZM242.814 62.5046C243.272 62.9046 243.497 63.3942 243.497 64.056H245.497C245.497 62.8404 245.04 61.7941 244.132 60.9994L242.814 62.5046ZM243.497 64.056C243.497 64.6084 243.288 65.1309 242.766 65.6529L244.18 67.0671C245.023 66.2237 245.497 65.2102 245.497 64.056H243.497ZM242.72 65.7015C242.32 66.1587 241.831 66.384 241.169 66.384V68.384C242.385 68.384 243.431 67.9267 244.226 67.0185L242.72 65.7015ZM264.505 147H263.505V148H264.505V147ZM268.601 92.856L267.766 92.3052L267.764 92.3092L268.601 92.856ZM279.353 83.256L278.913 82.3581L278.913 82.3581L279.353 83.256ZM306.489 83.256L306.042 84.1505L306.049 84.1539L306.489 83.256ZM317.113 92.856L316.271 93.3951L316.277 93.4049L316.284 93.4146L317.113 92.856ZM321.337 147V148H322.337V147H321.337ZM318.137 147H317.137V148H318.137V147ZM314.425 94.776L313.571 95.2959L313.577 95.3069L313.584 95.3177L314.425 94.776ZM304.953 85.944L304.498 86.8345L304.506 86.8384L304.953 85.944ZM280.761 85.944L281.2 86.8424L281.208 86.8385L281.216 86.8344L280.761 85.944ZM271.289 94.648L270.443 94.1147L270.44 94.1197L271.289 94.648ZM267.705 147V148H268.705V147H267.705ZM265.505 147V108.728H263.505V147H265.505ZM265.505 108.728C265.505 102.468 266.84 97.3814 269.438 93.4028L267.764 92.3092C264.901 96.6932 263.505 102.188 263.505 108.728H265.505ZM269.436 93.4068C272.159 89.2805 275.61 86.2044 279.793 84.1539L278.913 82.3581C274.392 84.5742 270.675 87.8982 267.766 92.3052L269.436 93.4068ZM279.793 84.1539C284.013 82.0855 288.385 81.056 292.921 81.056V79.056C288.07 79.056 283.397 80.1598 278.913 82.3581L279.793 84.1539ZM292.921 81.056C297.545 81.056 301.914 82.0866 306.042 84.1504L306.936 82.3616C302.53 80.1587 297.855 79.056 292.921 79.056V81.056ZM306.049 84.1539C310.229 86.203 313.634 89.2753 316.271 93.3951L317.955 92.3169C315.131 87.9034 311.453 84.5757 306.929 82.3581L306.049 84.1539ZM316.284 93.4146C318.962 97.3914 320.337 102.474 320.337 108.728H322.337C322.337 102.182 320.896 96.6832 317.942 92.2974L316.284 93.4146ZM320.337 108.728V147H322.337V108.728H320.337ZM321.337 146H318.137V148H321.337V146ZM319.137 147V109.24H317.137V147H319.137ZM319.137 109.24C319.137 103.297 317.869 98.2743 315.266 94.2343L313.584 95.3177C315.93 98.9577 317.137 103.578 317.137 109.24H319.137ZM315.279 94.2561C312.797 90.178 309.502 87.1004 305.4 85.0496L304.506 86.8384C308.255 88.7129 311.274 91.5233 313.571 95.2959L315.279 94.2561ZM305.408 85.0536C301.429 83.0197 297.22 82 292.793 82V84C296.9 84 300.797 84.943 304.498 86.8344L305.408 85.0536ZM292.793 82C288.448 82 284.282 83.0212 280.306 85.0536L281.216 86.8344C284.92 84.9414 288.775 84 292.793 84V82ZM280.322 85.0456C276.301 87.0115 273.008 90.0462 270.443 94.1147L272.135 95.1813C274.519 91.3991 277.541 88.6312 281.2 86.8424L280.322 85.0456ZM270.44 94.1197C267.926 98.1594 266.705 103.221 266.705 109.24H268.705C268.705 103.483 269.873 98.8166 272.138 95.1763L270.44 94.1197ZM266.705 109.24V147H268.705V109.24H266.705ZM267.705 146H264.505V148H267.705V146ZM355.802 144.184L355.275 145.034L355.285 145.04L355.802 144.184ZM344.154 131.768L343.274 132.244L344.154 131.768ZM344.154 96.952L343.274 96.4762L343.274 96.4762L344.154 96.952ZM355.802 84.664L356.319 85.5203L356.329 85.5136L355.802 84.664ZM390.106 84.664L389.579 85.5137L389.589 85.5202L390.106 84.664ZM401.754 96.952L400.874 97.4278L400.878 97.4339L401.754 96.952ZM401.754 131.768L402.634 132.244L402.634 132.244L401.754 131.768ZM390.106 144.184L390.623 145.04L390.633 145.034L390.106 144.184ZM388.314 141.624L388.838 142.476L388.843 142.473L388.314 141.624ZM398.938 130.36L399.816 130.839L399.819 130.832L398.938 130.36ZM398.938 98.488L398.056 98.9602L398.06 98.9669L398.938 98.488ZM388.314 87.224L387.778 88.0683L387.788 88.0743L387.797 88.0801L388.314 87.224ZM357.466 87.224L357.99 88.0757L357.995 88.0729L357.466 87.224ZM346.97 98.488L347.848 98.9669L347.851 98.9602L346.97 98.488ZM346.97 130.36L346.088 130.832L346.092 130.839L346.97 130.36ZM357.466 141.624L356.93 142.468L356.94 142.474L356.949 142.48L357.466 141.624ZM372.954 147.664C366.628 147.664 361.094 146.209 356.319 143.328L355.285 145.04C360.409 148.132 366.309 149.664 372.954 149.664V147.664ZM356.329 143.334C351.53 140.356 347.768 136.347 345.034 131.292L343.274 132.244C346.172 137.6 350.175 141.868 355.275 145.034L356.329 143.334ZM345.034 131.292C342.303 126.245 340.93 120.608 340.93 114.36H338.93C338.93 120.912 340.373 126.881 343.274 132.244L345.034 131.292ZM340.93 114.36C340.93 108.112 342.303 102.475 345.034 97.4278L343.274 96.4762C340.373 101.839 338.93 107.808 338.93 114.36H340.93ZM345.034 97.4278C347.767 92.3754 351.526 88.4124 356.319 85.5202L355.285 83.8078C350.18 86.8889 346.173 91.1179 343.274 96.4762L345.034 97.4278ZM356.329 85.5136C361.103 82.5508 366.633 81.056 372.954 81.056V79.056C366.304 79.056 360.4 80.6332 355.275 83.8144L356.329 85.5136ZM372.954 81.056C379.275 81.056 384.805 82.5508 389.579 85.5136L390.633 83.8144C385.508 80.6332 379.604 79.056 372.954 79.056V81.056ZM389.589 85.5202C394.382 88.4124 398.141 92.3754 400.874 97.4278L402.634 96.4762C399.735 91.1179 395.728 86.8889 390.623 83.8078L389.589 85.5202ZM400.878 97.4339C403.604 102.391 404.978 108.024 404.978 114.36H406.978C406.978 107.725 405.536 101.753 402.63 96.4701L400.878 97.4339ZM404.978 114.36C404.978 120.608 403.605 126.245 400.874 131.292L402.634 132.244C405.535 126.881 406.978 120.912 406.978 114.36H404.978ZM400.874 131.292C398.14 136.347 394.378 140.356 389.579 143.334L390.633 145.034C395.733 141.868 399.736 137.6 402.634 132.244L400.874 131.292ZM389.589 143.328C384.814 146.209 379.28 147.664 372.954 147.664V149.664C379.599 149.664 385.499 148.132 390.623 145.04L389.589 143.328ZM372.954 146.72C378.92 146.72 384.226 145.314 388.838 142.476L387.79 140.772C383.528 143.395 378.593 144.72 372.954 144.72V146.72ZM388.843 142.473C393.512 139.565 397.174 135.683 399.816 130.839L398.06 129.881C395.582 134.424 392.161 138.051 387.785 140.775L388.843 142.473ZM399.819 130.832C402.464 125.896 403.778 120.398 403.778 114.36H401.778C401.778 120.098 400.532 125.267 398.057 129.888L399.819 130.832ZM403.778 114.36C403.778 108.322 402.464 102.864 399.816 98.0091L398.06 98.9669C400.532 103.499 401.778 108.622 401.778 114.36H403.778ZM399.819 98.0158C397.177 93.0831 393.512 89.194 388.831 86.3679L387.797 88.0801C392.162 90.7153 395.579 94.3356 398.057 98.9602L399.819 98.0158ZM388.85 86.3797C384.236 83.4516 378.926 82 372.954 82V84C378.587 84 383.517 85.3644 387.778 88.0683L388.85 86.3797ZM372.954 82C366.982 82 361.633 83.4516 356.937 86.3751L357.995 88.0729C362.345 85.3644 367.321 84 372.954 84V82ZM356.942 86.3723C352.348 89.1995 348.728 93.0878 346.089 98.0158L347.851 98.9602C350.332 94.3308 353.71 90.7098 357.99 88.0757L356.942 86.3723ZM346.092 98.0091C343.444 102.864 342.13 108.322 342.13 114.36H344.13C344.13 108.622 345.376 103.499 347.848 98.9669L346.092 98.0091ZM342.13 114.36C342.13 120.398 343.444 125.896 346.089 130.832L347.851 129.888C345.376 125.267 344.13 120.098 344.13 114.36H342.13ZM346.092 130.839C348.732 135.678 352.347 139.56 356.93 142.468L358.002 140.78C353.71 138.056 350.328 134.428 347.848 129.881L346.092 130.839ZM356.949 142.48C361.643 145.314 366.988 146.72 372.954 146.72V144.72C367.315 144.72 362.334 143.395 357.983 140.768L356.949 142.48ZM489.695 147H488.695V148H489.695V147ZM489.695 144.056V143.056H488.695V144.056H489.695ZM528.991 141.752L529.518 142.602L529.529 142.595L529.539 142.588L528.991 141.752ZM534.623 135.608L533.735 135.149L533.735 135.149L534.623 135.608ZM534.879 121.272L533.977 121.705L533.984 121.719L533.992 121.733L534.879 121.272ZM530.015 116.024L530.539 115.172L530.539 115.172L530.015 116.024ZM496.479 111.8L495.989 112.672L496.005 112.681L496.021 112.689L496.479 111.8ZM490.335 105.912L489.447 106.371L489.456 106.39L489.467 106.408L490.335 105.912ZM490.335 90.296L489.453 89.8254L489.447 89.8366L490.335 90.296ZM496.223 84.152L496.738 85.0095L496.746 85.0046L496.223 84.152ZM534.879 81.72H535.879V80.72H534.879V81.72ZM534.879 84.664V85.664H535.879V84.664H534.879ZM495.455 88.888L494.704 88.2279L494.702 88.2295L495.455 88.888ZM495.583 106.936L494.853 107.619L494.859 107.625L494.864 107.631L495.583 106.936ZM531.679 113.336L531.191 114.209L531.191 114.209L531.679 113.336ZM537.823 136.888L538.707 137.356L538.712 137.345L537.823 136.888ZM531.295 144.184L531.85 145.016L531.858 145.01L531.867 145.004L531.295 144.184ZM490.695 147V144.056H488.695V147H490.695ZM489.695 145.056H519.775V143.056H489.695V145.056ZM519.775 145.056C523.583 145.056 526.849 144.258 529.518 142.602L528.464 140.902C526.184 142.317 523.306 143.056 519.775 143.056V145.056ZM529.539 142.588C532.148 140.879 534.147 138.704 535.511 136.067L533.735 135.149C532.539 137.461 530.783 139.382 528.443 140.916L529.539 142.588ZM535.511 136.067C536.858 133.464 537.543 130.79 537.543 128.056H535.543C535.543 130.442 534.948 132.803 533.735 135.149L535.511 136.067ZM537.543 128.056C537.543 125.505 536.949 123.086 535.766 120.811L533.992 121.733C535.028 123.725 535.543 125.828 535.543 128.056H537.543ZM535.781 120.839C534.665 118.516 532.904 116.628 530.539 115.172L529.491 116.876C531.563 118.151 533.045 119.762 533.977 121.705L535.781 120.839ZM530.539 115.172C528.121 113.684 525.109 112.976 521.567 112.976V114.976C524.851 114.976 527.472 115.633 529.491 116.876L530.539 115.172ZM521.567 112.976H506.975V114.976H521.567V112.976ZM506.975 112.976C502.904 112.976 499.573 112.269 496.937 110.911L496.021 112.689C499.017 114.232 502.683 114.976 506.975 114.976V112.976ZM496.969 110.928C494.374 109.469 492.467 107.627 491.203 105.416L489.467 106.408C490.934 108.975 493.123 111.059 495.989 112.672L496.969 110.928ZM491.223 105.453C490.013 103.112 489.415 100.709 489.415 98.232H487.415C487.415 101.046 488.097 103.763 489.447 106.371L491.223 105.453ZM489.415 98.232C489.415 95.5741 490.017 93.0865 491.223 90.7554L489.447 89.8366C488.093 92.4548 487.415 95.2579 487.415 98.232H489.415ZM491.217 90.7666C492.495 88.3713 494.328 86.4551 496.737 85.0095L495.709 83.2945C492.998 84.9209 490.906 87.1007 489.453 89.8254L491.217 90.7666ZM496.746 85.0046C499.203 83.4981 502.214 82.72 505.823 82.72V80.72C501.923 80.72 498.533 81.5632 495.7 83.2994L496.746 85.0046ZM505.823 82.72H534.879V80.72H505.823V82.72ZM533.879 81.72V84.664H535.879V81.72H533.879ZM534.879 83.664H506.207V85.664H534.879V83.664ZM506.207 83.664C501.304 83.664 497.414 85.1434 494.704 88.2279L496.206 89.5481C498.445 87.0006 501.723 85.664 506.207 85.664V83.664ZM494.702 88.2295C492.165 91.13 490.871 94.4323 490.871 98.104H492.871C492.871 94.949 493.967 92.1074 496.208 89.5465L494.702 88.2295ZM490.871 98.104C490.871 101.631 492.227 104.812 494.853 107.619L496.313 106.253C493.99 103.769 492.871 101.063 492.871 98.104H490.871ZM494.864 107.631C497.682 110.543 501.917 111.904 507.359 111.904V109.904C502.22 109.904 498.604 108.619 496.302 106.241L494.864 107.631ZM507.359 111.904H520.415V109.904H507.359V111.904ZM520.415 111.904C524.915 111.904 528.486 112.697 531.191 114.209L532.167 112.463C529.07 110.732 525.131 109.904 520.415 109.904V111.904ZM531.191 114.209C533.95 115.751 535.934 117.711 537.197 120.079L538.961 119.137C537.493 116.385 535.211 114.164 532.167 112.463L531.191 114.209ZM537.197 120.079C538.485 122.494 539.127 125.063 539.127 127.8H541.127C541.127 124.735 540.404 121.842 538.961 119.137L537.197 120.079ZM539.127 127.8C539.127 130.698 538.404 133.572 536.934 136.431L538.712 137.345C540.314 134.231 541.127 131.046 541.127 127.8H539.127ZM536.939 136.42C535.481 139.174 533.415 141.488 530.723 143.364L531.867 145.004C534.807 142.955 537.093 140.404 538.707 137.356L536.939 136.42ZM530.74 143.352C528.117 145.101 524.905 146 521.055 146V148C525.226 148 528.841 147.022 531.85 145.016L530.74 143.352ZM521.055 146H489.695V148H521.055V146Z" fill="white" mask="url(#path-1-outside-1_777_24)"/>
<path d="M450 140C450.667 140.5 453.1 141.2 457.5 140C461 139 469 135.2 473 128C473.333 127.333 473.9 125.6 473.5 124" stroke="white" stroke-width="3"/>
<path d="M432.604 92C431.27 94.8333 427.404 101.3 422.604 104.5C413.604 110.5 404.104 129 422.604 144.5C433.565 153.684 461.779 156.599 477.104 144.5C486.604 137 495.604 120 476.104 104.5C473.117 102.126 468.604 96.4 466.604 92" stroke="white" stroke-width="3"/>
<path d="M467 86H433V79L439 72H461L467 78V86Z" fill="white" stroke="white" stroke-width="3"/>
</svg>
