<svg width="27" height="27" viewBox="0 0 27 27" fill="none" xmlns="http://www.w3.org/2000/svg">
<rect x="-0.5" y="0.5" width="26" height="26" transform="matrix(-1 0 0 1 26 0)" stroke="white"/>
<path d="M12.0727 4.12736C11.7351 3.78991 11.2774 3.60034 10.8001 3.60034C10.3228 3.60034 9.86505 3.78991 9.5275 4.12736L1.4275 12.2274C1.09005 12.5649 0.900482 13.0227 0.900482 13.5C0.900482 13.9773 1.09005 14.435 1.4275 14.7726L9.5275 22.8726C9.86698 23.2004 10.3217 23.3819 10.7936 23.3778C11.2656 23.3737 11.717 23.1844 12.0508 22.8506C12.3845 22.5169 12.5738 22.0654 12.5779 21.5935C12.582 21.1215 12.4006 20.6668 12.0727 20.3274L7.2001 15.3H24.3001C24.7775 15.3 25.2353 15.1103 25.5729 14.7727C25.9105 14.4352 26.1001 13.9773 26.1001 13.5C26.1001 13.0226 25.9105 12.5647 25.5729 12.2272C25.2353 11.8896 24.7775 11.7 24.3001 11.7H7.2001L12.0727 6.67256C12.4101 6.33501 12.5997 5.87725 12.5997 5.39996C12.5997 4.92266 12.4101 4.46491 12.0727 4.12736Z" fill="#011125"/>
</svg>
