<svg width="30" height="29" viewBox="0 0 30 29" fill="none" xmlns="http://www.w3.org/2000/svg">
<path d="M23.3279 16.375L14.1404 25.5625C13.7654 25.9375 13.5854 26.375 13.6004 26.875C13.6154 27.375 13.8111 27.8125 14.1873 28.1875C14.5623 28.5312 14.9998 28.7112 15.4998 28.7275C15.9998 28.7437 16.4373 28.5637 16.8123 28.1875L29.1873 15.8125C29.3748 15.625 29.5079 15.4219 29.5867 15.2031C29.6654 14.9844 29.7036 14.75 29.7011 14.5C29.6986 14.25 29.6592 14.0156 29.5829 13.7969C29.5067 13.5781 29.3742 13.375 29.1854 13.1875L16.8104 0.812499C16.4667 0.468749 16.0367 0.296875 15.5204 0.296875C15.0042 0.296875 14.5592 0.468749 14.1854 0.812499C13.8104 1.1875 13.6229 1.63312 13.6229 2.14937C13.6229 2.66562 13.8104 3.11062 14.1854 3.48437L23.3279 12.625H2.37481C1.84356 12.625 1.39793 12.805 1.03794 13.165C0.677935 13.525 0.498558 13.97 0.499809 14.5C0.501059 15.03 0.681059 15.4756 1.03981 15.8369C1.39856 16.1981 1.84356 16.3775 2.37481 16.375H23.3279Z" fill="white"/>
</svg>
